<?xml version="1.0" encoding="utf-8"?>
<!-- Generator: Adobe Illustrator 27.8.0, SVG Export Plug-In . SVG Version: 6.00 Build 0)  -->
<svg version="1.1" id="Calque_1" xmlns="http://www.w3.org/2000/svg" xmlns:xlink="http://www.w3.org/1999/xlink" x="0px" y="0px"
	 viewBox="0 0 24 24" style="enable-background:new 0 0 24 24;" xml:space="preserve">
<style type="text/css">
	.st0{fill:#FFFFFF;}
</style>
<path class="st0" d="M15,21c-2,0-3.7-0.6-5.2-1.7S7.1,16.8,6.5,15H3v-2h3.1C6,12.8,6,12.6,6,12.5v-1c0-0.2,0-0.3,0.1-0.5H3V9h3.5
	c0.6-1.8,1.7-3.2,3.2-4.3S13,3,15,3c1.1,0,2.2,0.2,3.3,0.6s1.9,1,2.7,1.7L19.2,7c-0.6-0.5-1.2-0.9-2-1.1c-0.7-0.3-1.5-0.4-2.3-0.4
	c-1.2,0-2.4,0.3-3.4,1S9.8,7.9,9.2,9H15v2H8.6c0,0.2-0.1,0.3-0.1,0.5c0,0.1,0,0.3,0,0.5s0,0.3,0,0.5c0,0.1,0,0.3,0.1,0.5H15v2H9.2
	c0.5,1,1.3,1.9,2.3,2.5s2.2,1,3.4,1c0.8,0,1.6-0.1,2.3-0.4s1.4-0.7,1.9-1.1l1.8,1.8c-0.8,0.7-1.7,1.3-2.7,1.7S16.1,21,15,21z"/>
</svg>
