<?xml version="1.0" encoding="utf-8"?>
<!-- Generator: Adobe Illustrator 27.8.0, SVG Export Plug-In . SVG Version: 6.00 Build 0)  -->
<svg version="1.1" id="Calque_1" xmlns="http://www.w3.org/2000/svg" xmlns:xlink="http://www.w3.org/1999/xlink" x="0px" y="0px"
	 viewBox="0 0 24 24" style="enable-background:new 0 0 24 24;" xml:space="preserve">
<style type="text/css">
	.st0{fill:#FFFFFF;}
</style>
<path class="st0" d="M1,20v-4c0-0.6,0.2-1,0.6-1.4S2.5,14,3,14h3.3c0.3,0,0.7,0.1,0.9,0.2c0.3,0.2,0.5,0.4,0.7,0.7
	c0.5,0.6,1.1,1.2,1.8,1.5c0.7,0.4,1.5,0.5,2.3,0.5c0.8,0,1.6-0.2,2.3-0.5c0.7-0.4,1.3-0.9,1.8-1.5c0.2-0.3,0.5-0.5,0.8-0.7
	c0.3-0.2,0.6-0.2,0.9-0.2H21c0.6,0,1,0.2,1.4,0.6C22.8,15,23,15.4,23,16v4h-7v-2.3c-0.6,0.4-1.2,0.7-1.9,0.9
	C13.4,18.9,12.7,19,12,19c-0.7,0-1.4-0.1-2.1-0.3c-0.7-0.2-1.3-0.5-1.9-1V20H1z M12,16c-0.6,0-1.2-0.1-1.8-0.4
	c-0.6-0.3-1-0.7-1.4-1.2c-0.3-0.4-0.6-0.7-1.1-1C7.3,13.1,6.8,13,6.3,13c0.4-0.6,1.1-1.1,2.3-1.5C9.8,11.2,10.9,11,12,11
	s2.2,0.2,3.4,0.5c1.2,0.4,2,0.8,2.3,1.5c-0.5,0-0.9,0.1-1.4,0.4c-0.4,0.2-0.8,0.6-1.1,1c-0.4,0.5-0.8,0.9-1.4,1.2
	C13.3,15.9,12.7,16,12,16z M4,13c-0.8,0-1.5-0.3-2.1-0.9C1.3,11.5,1,10.8,1,10c0-0.9,0.3-1.6,0.9-2.1S3.2,7,4,7
	c0.8,0,1.6,0.3,2.1,0.9S7,9.1,7,10c0,0.8-0.3,1.5-0.9,2.1C5.6,12.7,4.8,13,4,13z M20,13c-0.8,0-1.5-0.3-2.1-0.9
	C17.3,11.5,17,10.8,17,10c0-0.9,0.3-1.6,0.9-2.1C18.5,7.3,19.2,7,20,7c0.9,0,1.6,0.3,2.1,0.9C22.7,8.4,23,9.1,23,10
	c0,0.8-0.3,1.5-0.9,2.1C21.6,12.7,20.9,13,20,13z M12,10c-0.8,0-1.5-0.3-2.1-0.9C9.3,8.5,9,7.8,9,7c0-0.8,0.3-1.6,0.9-2.1
	C10.5,4.3,11.2,4,12,4c0.9,0,1.6,0.3,2.1,0.9C14.7,5.4,15,6.1,15,7c0,0.8-0.3,1.5-0.9,2.1C13.6,9.7,12.9,10,12,10z"/>
</svg>
