<?xml version="1.0" encoding="utf-8"?>
<!-- Generator: Adobe Illustrator 27.8.0, SVG Export Plug-In . SVG Version: 6.00 Build 0)  -->
<svg version="1.1" id="Calque_1" xmlns="http://www.w3.org/2000/svg" xmlns:xlink="http://www.w3.org/1999/xlink" x="0px" y="0px"
	 viewBox="0 0 24 24" style="enable-background:new 0 0 24 24;" xml:space="preserve">
<style type="text/css">
	.st0{fill:#FFFFFF;}
</style>
<path class="st0" d="M13.3,13c-0.5-0.8-1.2-1.3-2.1-1.6C10.3,11.1,9.4,11,8.5,11s-1.8,0.1-2.7,0.4c-0.9,0.3-1.6,0.8-2.1,1.6H13.3z
	 M1,15c0-1.8,0.8-3.3,2.3-4.4S6.5,9,8.5,9s3.7,0.5,5.2,1.6S16,13.2,16,15H1z M1,19v-2h15v2H1z M18,23v-2h1.4l1.4-14h-9.6L11,5h5V1h2
	v4h5l-1.6,16.5c0,0.4-0.2,0.8-0.5,1c-0.3,0.3-0.7,0.4-1.1,0.4H18z M18,21h1.4H18z M2,23c-0.3,0-0.5-0.1-0.7-0.3
	C1.1,22.5,1,22.3,1,22v-1h15v1c0,0.3-0.1,0.5-0.3,0.7C15.5,22.9,15.3,23,15,23H2z"/>
</svg>
